<svg id="Layer_1" data-name="Layer 1" xmlns="http://www.w3.org/2000/svg" viewBox="0 0 378.26 257.11"><defs><style>.cls-1{fill:#fff;}.cls-2,.cls-4,.cls-5,.cls-6{fill:none;stroke-miterlimit:10;}.cls-2{stroke:#ed1c24;}.cls-2,.cls-6{stroke-width:2.83px;}.cls-3{fill:#ed1c24;}.cls-4{stroke:#ec1f26;stroke-width:4.25px;}.cls-5{stroke:#fff;stroke-width:2.13px;}.cls-6{stroke:#000;}</style></defs><polygon class="cls-1" points="190.63 91.73 192.3 89.09 190.63 88.04 190.63 91.73"/><polygon class="cls-1" points="81.75 205.97 79.68 209.25 80.56 209.79 81.75 205.97"/><polygon class="cls-1" points="79.68 209.25 76.36 214.5 78.63 215.94 80.56 209.79 79.68 209.25"/><polygon class="cls-1" points="73.05 219.77 69.73 225.04 74.78 228.22 76.71 222.06 73.05 219.77"/><polygon class="cls-1" points="87.7 184.88 84.39 190.15 86.34 191.37 88.27 185.24 87.7 184.88"/><polygon class="cls-1" points="67.81 216.45 64.49 221.7 69.73 225.04 73.05 219.77 67.81 216.45"/><polygon class="cls-1" points="95.7 160.55 92.41 165.8 94.05 166.82 95.98 160.69 95.78 160.55 95.7 160.55"/><polygon class="cls-1" points="89.09 171.04 85.78 176.31 90.2 179.09 92.13 172.97 89.09 171.04"/><polygon class="cls-1" points="82.46 181.56 79.14 186.83 84.39 190.15 87.7 184.88 82.46 181.56"/><polygon class="cls-1" points="79.14 186.83 75.83 192.07 81.07 195.42 84.39 190.15 79.14 186.83"/><polygon class="cls-1" points="75.83 192.07 72.48 197.35 77.75 200.66 81.07 195.42 75.83 192.07"/><rect class="cls-1" x="179.22" y="490.47" width="6.23" height="6.23" transform="translate(-441.42 93.17) rotate(-57.83)"/><polygon class="cls-1" points="69.17 202.62 65.85 207.86 71.12 211.18 74.44 205.94 69.17 202.62"/><rect class="cls-1" x="172.58" y="500.99" width="6.23" height="6.23" transform="translate(-453.43 92.47) rotate(-57.83)"/><polygon class="cls-1" points="62.53 213.14 59.22 218.38 64.49 221.7 67.81 216.45 62.53 213.14"/><polygon class="cls-1" points="87.14 162.48 83.82 167.72 89.09 171.04 92.41 165.8 87.14 162.48"/><rect class="cls-1" x="190.56" y="460.85" width="6.23" height="6.23" transform="translate(-411.05 88.92) rotate(-57.83)"/><polygon class="cls-1" points="81.89 159.14 78.58 164.41 83.82 167.72 87.14 162.48 85.24 161.26 82.38 161.46 82.89 159.79 81.89 159.14"/><polygon class="cls-1" points="71.94 174.93 68.63 180.2 73.87 183.51 77.19 178.24 71.94 174.93"/><polygon class="cls-1" points="68.63 180.2 65.28 185.44 70.55 188.76 73.87 183.51 68.63 180.2"/><rect class="cls-1" x="172.02" y="478.56" width="6.23" height="6.23" transform="translate(-434.71 81.51) rotate(-57.83)"/><polygon class="cls-1" points="61.97 190.71 58.65 195.96 63.92 199.28 67.24 194.03 61.97 190.71"/><rect class="cls-1" x="165.38" y="489.08" width="6.23" height="6.23" transform="translate(-446.71 80.81) rotate(-57.83)"/><polygon class="cls-1" points="91.33 132.55 89.92 134.79 90.51 135.18 91.33 132.55"/><polygon class="cls-1" points="89.92 134.79 86.6 140.06 88.61 141.34 90.51 135.18 89.92 134.79"/><polygon class="cls-1" points="83.28 145.3 79.94 150.58 84.78 153.64 86.71 147.49 83.28 145.3"/><polygon class="cls-1" points="79.94 150.58 76.62 155.82 81.89 159.14 84.25 155.42 84.78 153.64 79.94 150.58"/><rect class="cls-1" x="183.36" y="448.94" width="6.23" height="6.23" transform="translate(-404.34 77.26) rotate(-57.83)"/><polygon class="cls-1" points="69.99 166.34 66.67 171.61 71.94 174.93 75.26 169.68 69.99 166.34"/><rect class="cls-1" x="173.41" y="464.73" width="6.23" height="6.23" transform="translate(-422.35 76.22) rotate(-57.83)"/><polygon class="cls-1" points="63.35 176.88 60.04 182.13 65.28 185.44 68.63 180.2 63.35 176.88"/><polygon class="cls-1" points="60.04 182.13 56.72 187.4 61.97 190.71 65.28 185.44 60.04 182.13"/><polygon class="cls-1" points="46.74 203.16 43.43 208.43 48.7 211.75 52.02 206.5 46.74 203.16"/><polygon class="cls-1" points="98.42 109.67 97.94 110.44 98.14 110.55 98.42 109.67"/><polygon class="cls-1" points="94.62 115.68 91.28 120.95 94.31 122.85 96.24 116.7 94.62 115.68"/><polygon class="cls-1" points="91.28 120.95 87.96 126.2 92.41 129 94.31 122.85 91.28 120.95"/><polygon class="cls-1" points="87.96 126.2 84.64 131.47 89.92 134.79 91.33 132.55 92.41 129 87.96 126.2"/><rect class="cls-1" x="191.38" y="424.59" width="6.23" height="6.23" transform="translate(-379.97 72.66) rotate(-57.83)"/><polygon class="cls-1" points="81.33 136.74 78.01 141.99 83.28 145.3 86.6 140.06 81.33 136.74"/><rect class="cls-1" x="174.79" y="450.9" width="6.2" height="6.2" transform="matrix(0.53, -0.85, 0.85, 0.53, -409.77, 69.74)"/><polygon class="cls-1" points="61.4 168.29 58.08 173.54 63.35 176.88 66.67 171.61 61.4 168.29"/><polygon class="cls-1" points="99.3 96.58 95.98 101.85 100.03 104.4 101.93 98.25 99.3 96.58"/><polygon class="cls-1" points="95.98 101.85 92.67 107.12 97.94 110.44 98.42 109.67 100.03 104.4 95.98 101.85"/><polygon class="cls-1" points="89.35 112.36 86.03 117.64 91.28 120.95 94.62 115.68 89.35 112.36"/><rect class="cls-1" x="192.77" y="410.76" width="6.2" height="6.2" transform="matrix(0.53, -0.85, 0.85, 0.53, -367.48, 66.25)"/><polygon class="cls-1" points="79.4 128.15 76.08 133.4 81.33 136.74 84.64 131.47 79.4 128.15"/><polygon class="cls-1" points="62.79 154.46 59.47 159.7 64.74 163.02 68.06 157.78 62.79 154.46"/><rect class="cls-1" x="162.89" y="458.1" width="6.2" height="6.2" transform="matrix(0.53, -0.85, 0.85, 0.53, -421.39, 63.03)"/><polygon class="cls-1" points="49.52 175.49 46.2 180.76 51.45 184.08 54.77 178.81 49.52 175.49"/><polygon class="cls-1" points="46.2 180.76 42.86 186.01 48.13 189.32 51.45 184.08 46.2 180.76"/><polygon class="cls-1" points="39.54 191.28 36.23 196.53 41.5 199.84 44.82 194.6 39.54 191.28"/><polygon class="cls-1" points="112.59 63.89 110.64 66.98 111.46 67.49 112.59 63.89"/><polygon class="cls-1" points="110.64 66.98 107.32 72.23 109.56 73.64 111.46 67.49 110.64 66.98"/><polygon class="cls-1" points="107.32 72.23 104 77.5 107.66 79.79 109.56 73.64 107.32 72.23"/><polygon class="cls-1" points="104 77.5 100.69 82.74 105.76 85.95 107.66 79.79 104 77.5"/><polygon class="cls-1" points="87.39 103.78 84.08 109.05 89.35 112.36 92.67 107.12 87.39 103.78"/><rect class="cls-1" x="184.18" y="412.69" width="6.23" height="6.23" transform="translate(-373.26 61) rotate(-57.83)"/><polygon class="cls-1" points="74.13 124.84 70.81 130.08 76.08 133.4 79.4 128.15 74.13 124.84"/><polygon class="cls-1" points="67.49 135.35 64.18 140.6 69.42 143.94 72.74 138.67 67.49 135.35"/><rect class="cls-1" x="160.93" y="449.51" width="6.23" height="6.23" transform="translate(-415.3 58.54) rotate(-57.83)"/><rect class="cls-1" x="154.3" y="460.03" width="6.23" height="6.23" transform="translate(-427.3 57.84) rotate(-57.83)"/><polygon class="cls-1" points="40.93 177.42 37.62 182.69 42.86 186.01 46.2 180.76 40.93 177.42"/><polygon class="cls-1" points="37.62 182.69 34.3 187.97 39.54 191.28 42.86 186.01 37.62 182.69"/><polygon class="cls-1" points="106.58 61.74 105.39 63.64 110.64 66.98 112.59 63.89 113.24 61.77 106.58 61.74"/><polygon class="cls-1" points="105.39 63.64 102.08 68.91 107.32 72.23 110.64 66.98 105.39 63.64"/><rect class="cls-1" x="195.52" y="383.07" width="6.23" height="6.23" transform="translate(-342.89 56.75) rotate(-57.83)"/><polygon class="cls-1" points="82.15 100.46 78.83 105.73 84.08 109.05 87.39 103.78 82.15 100.46"/><polygon class="cls-1" points="68.88 121.52 65.54 126.77 70.81 130.08 74.13 124.84 68.88 121.52"/><rect class="cls-1" x="172.27" y="419.89" width="6.23" height="6.23" transform="translate(-384.92 54.29) rotate(-57.83)"/><rect class="cls-1" x="165.64" y="430.4" width="6.23" height="6.23" transform="translate(-396.93 53.59) rotate(-57.83)"/><polygon class="cls-1" points="55.59 142.55 52.27 147.8 57.54 151.14 60.86 145.87 55.59 142.55"/><polygon class="cls-1" points="52.27 147.8 48.95 153.07 54.2 156.39 57.54 151.14 52.27 147.8"/><polygon class="cls-1" points="48.95 153.07 45.64 158.34 50.88 161.66 54.2 156.39 48.95 153.07"/><rect class="cls-1" x="152.37" y="451.46" width="6.2" height="6.2" transform="matrix(0.53, -0.85, 0.85, 0.53, -420.68, 51.05)"/><polygon class="cls-1" points="42.32 163.59 39.01 168.86 44.25 172.18 47.56 166.9 42.32 163.59"/><polygon class="cls-1" points="39.01 168.86 35.66 174.1 40.93 177.42 44.25 172.18 39.01 168.86"/><polygon class="cls-1" points="96.8 65.59 93.49 70.84 98.73 74.18 102.08 68.91 96.8 65.59"/><polygon class="cls-1" points="93.49 70.84 90.17 76.11 95.41 79.43 98.73 74.18 93.49 70.84"/><rect class="cls-1" x="193.59" y="374.5" width="6.2" height="6.2" transform="translate(-336.45 50.06) rotate(-57.69)"/><polygon class="cls-1" points="83.54 86.63 80.19 91.9 85.47 95.22 88.78 89.94 83.54 86.63"/><rect class="cls-1" x="183.61" y="390.27" width="6.23" height="6.23" transform="translate(-354.55 50.04) rotate(-57.83)"/><polygon class="cls-1" points="40.37 155 37.05 160.27 42.32 163.59 45.64 158.34 40.37 155"/><rect class="cls-1" x="143.78" y="453.39" width="6.23" height="6.23" transform="translate(-426.61 45.84) rotate(-57.83)"/><polygon class="cls-1" points="33.73 165.54 33.22 166.34 33.22 172.57 35.66 174.1 39.01 168.86 33.73 165.54"/><polygon class="cls-1" points="33.22 177.99 35.66 174.1 33.22 172.57 33.22 177.99"/><polygon class="cls-1" points="91.93 61.68 91.53 62.28 96.8 65.59 99.27 61.71 91.93 61.68"/><polygon class="cls-1" points="84.9 72.79 81.58 78.04 86.85 81.38 90.17 76.11 84.9 72.79"/><rect class="cls-1" x="181.68" y="381.7" width="6.2" height="6.2" transform="matrix(0.53, -0.85, 0.85, 0.53, -348.08, 43.35)"/><polygon class="cls-1" points="71.63 93.83 68.31 99.1 73.56 102.42 76.88 97.14 71.63 93.83"/><rect class="cls-1" x="175.05" y="392.22" width="6.2" height="6.2" transform="translate(-360.06 42.64) rotate(-57.69)"/><polygon class="cls-1" points="61.65 109.61 58.34 114.86 63.61 118.2 66.93 112.93 61.65 109.61"/><rect class="cls-1" x="161.76" y="413.25" width="6.23" height="6.23" transform="translate(-384.23 42.29) rotate(-57.83)"/><polygon class="cls-1" points="45.07 135.92 41.75 141.16 47 144.48 50.34 139.24 45.07 135.92"/><polygon class="cls-1" points="41.75 141.16 38.44 146.44 43.68 149.75 47 144.48 41.75 141.16"/><rect class="cls-1" x="145.17" y="439.56" width="6.2" height="6.2" transform="matrix(0.53, -0.85, 0.85, 0.53, -413.97, 39.43)"/><polygon class="cls-1" points="35.12 151.68 33.22 154.69 33.22 157.86 37.05 160.27 40.37 155 35.12 151.68"/><polygon class="cls-1" points="33.22 165.2 33.73 165.54 37.05 160.27 33.22 157.86 33.22 165.2"/><polygon class="cls-1" points="33.22 166.34 33.73 165.54 33.22 165.2 33.22 166.34"/><polygon class="cls-1" points="90.59 61.68 91.53 62.28 91.93 61.68 90.59 61.68"/><polygon class="cls-1" points="82.97 64.2 79.65 69.48 84.9 72.79 88.21 67.52 82.97 64.2"/><rect class="cls-1" x="186.39" y="362.6" width="6.2" height="6.2" transform="translate(-329.74 38.44) rotate(-57.69)"/><polygon class="cls-1" points="72.99 79.99 69.68 85.24 74.95 88.58 78.27 83.31 72.99 79.99"/><polygon class="cls-1" points="69.68 85.24 66.36 90.51 71.63 93.83 74.95 88.58 69.68 85.24"/><rect class="cls-1" x="173.1" y="383.63" width="6.23" height="6.23" transform="translate(-353.85 38.03) rotate(-57.83)"/><polygon class="cls-1" points="49.78 116.81 46.46 122.06 51.7 125.4 55.02 120.13 49.78 116.81"/><polygon class="cls-1" points="46.46 122.06 43.12 127.33 48.39 130.65 51.7 125.4 46.46 122.06"/><polygon class="cls-1" points="39.8 132.6 36.48 137.85 41.75 141.16 45.07 135.92 39.8 132.6"/><rect class="cls-1" x="161.19" y="390.83" width="6.23" height="6.23" transform="translate(-365.51 31.32) rotate(-57.83)"/><polygon class="cls-1" points="51.14 102.98 47.82 108.23 53.09 111.54 56.41 106.3 51.14 102.98"/><rect class="cls-1" x="154.56" y="401.35" width="6.23" height="6.23" transform="translate(-377.52 30.63) rotate(-57.83)"/><polygon class="cls-1" points="41.19 118.74 37.87 124.02 43.12 127.33 46.46 122.06 41.19 118.74"/><polygon class="cls-1" points="37.87 124.02 34.55 129.26 39.8 132.6 43.12 127.33 37.87 124.02"/><polygon class="cls-1" points="34.55 129.26 33.22 131.36 33.22 135.81 36.48 137.85 39.8 132.6 34.55 129.26"/><polygon class="cls-1" points="33.22 143.01 36.48 137.85 33.22 135.81 33.22 143.01"/><polygon class="cls-1" points="69.9 61.6 69.14 62.84 74.38 66.16 77.24 61.62 69.9 61.6"/><polygon class="cls-1" points="69.14 62.84 65.79 68.09 71.06 71.4 74.38 66.16 69.14 62.84"/><rect class="cls-1" x="172.53" y="361.21" width="6.23" height="6.23" transform="translate(-335.14 27.07) rotate(-57.83)"/><polygon class="cls-1" points="62.48 73.36 59.16 78.6 64.43 81.92 67.75 76.68 62.48 73.36"/><rect class="cls-1" x="165.9" y="371.73" width="6.23" height="6.23" transform="translate(-347.14 26.37) rotate(-57.83)"/><polygon class="cls-1" points="55.84 83.88 52.53 89.12 57.8 92.47 61.12 87.19 55.84 83.88"/><polygon class="cls-1" points="49.21 94.39 45.89 99.67 51.14 102.98 54.45 97.71 49.21 94.39"/><rect class="cls-1" x="152.63" y="392.79" width="6.2" height="6.2" transform="matrix(0.53, -0.85, 0.85, 0.53, -370.97, 23.96)"/><polygon class="cls-1" points="42.58 104.91 39.26 110.18 44.5 113.5 47.82 108.23 42.58 104.91"/><polygon class="cls-1" points="39.26 110.18 35.91 115.43 41.19 118.74 44.5 113.5 39.26 110.18"/><polygon class="cls-1" points="35.91 115.43 33.22 119.71 33.22 121.09 37.87 124.02 41.19 118.74 35.91 115.43"/><polygon class="cls-1" points="53.91 75.29 50.6 80.56 55.84 83.88 59.16 78.6 53.91 75.29"/><rect class="cls-1" x="153.99" y="378.93" width="6.23" height="6.23" transform="translate(-358.8 19.66) rotate(-57.83)"/><polygon class="cls-1" points="43.94 91.08 40.62 96.32 45.89 99.67 49.21 94.39 43.94 91.08"/><rect class="cls-1" x="144.04" y="394.72" width="6.23" height="6.23" transform="translate(-376.82 18.62) rotate(-57.83)"/><polygon class="cls-1" points="51.96 66.73 48.64 71.97 53.91 75.29 57.23 70.04 51.96 66.73"/><rect class="cls-1" x="155.38" y="365.09" width="6.23" height="6.23" transform="translate(-346.44 14.37) rotate(-57.83)"/><polygon class="cls-1" points="45.33 77.24 42.01 82.49 47.25 85.8 50.6 80.56 45.33 77.24"/><polygon class="cls-1" points="42.01 82.49 38.69 87.76 43.94 91.08 47.25 85.8 42.01 82.49"/><polygon class="cls-1" points="35.38 93 33.22 96.41 33.22 99.01 37.3 101.59 40.62 96.32 35.38 93"/><polygon class="cls-1" points="33.22 106.38 33.99 106.86 37.3 101.59 33.22 99.01 33.22 106.38"/><polygon class="cls-1" points="47.91 61.48 46.72 63.38 51.96 66.73 55.25 61.51 47.91 61.48"/><polygon class="cls-1" points="46.72 63.38 43.4 68.65 48.64 71.97 51.96 66.73 46.72 63.38"/><polygon class="cls-1" points="43.4 68.65 40.05 73.93 45.33 77.24 48.64 71.97 43.4 68.65"/><polygon class="cls-1" points="40.56 61.45 38.13 65.34 43.4 68.65 46.72 63.38 43.68 61.48 40.56 61.45"/><polygon class="cls-1" points="38.13 65.34 34.81 70.58 40.05 73.93 43.4 68.65 38.13 65.34"/><polygon class="cls-1" points="34.81 70.58 33.22 73.08 33.22 76.96 36.74 79.17 40.05 73.93 34.81 70.58"/><polygon class="cls-1" points="33.22 84.3 33.42 84.44 36.74 79.17 33.22 76.96 33.22 84.3"/><polygon class="cls-1" points="33.22 62.25 38.13 65.34 40.56 61.45 33.22 61.43 33.22 62.25"/><polygon class="cls-1" points="33.22 73.08 34.81 70.58 33.22 69.59 33.22 73.08"/><polygon class="cls-2" points="1.42 200.32 1.42 29.45 155.48 29.45 155.48 57.8 29.76 57.8 29.76 200.32 1.42 200.32"/><polygon class="cls-3" points="378.25 119.22 378.25 251.69 89.92 251.69 98.79 223.34 349.91 223.34 349.91 119.22 378.25 119.22"/><path class="cls-3" d="M130.56,484.64v-3.15a2.26,2.26,0,0,0-.57-1.67,2,2,0,0,0-1.56-.56h-6.89a2.05,2.05,0,0,0-1.58.56,2.38,2.38,0,0,0-.54,1.67v3.15h-3v-3.23a6.56,6.56,0,0,1,.57-2.86,3.87,3.87,0,0,1,1.7-1.82,5.43,5.43,0,0,1,2.69-.62h7.11a5.56,5.56,0,0,1,2.64.59,4.41,4.41,0,0,1,1.73,1.82,6.36,6.36,0,0,1,.6,2.89v3.23Zm-14.09,1.79v-3.06h17v3.06Zm0-12.82v-3h3v3Zm4.87,0v-3h12.17v3Zm0-11.53v-3l12.17,3.89v2.27l-12.17,3.88v-3l7.83-2Zm9.1-2.75v-3.06h3.07v3.06Zm3.24-14.69a7,7,0,0,1-.34,2.22,4.16,4.16,0,0,1-1,1.61,3.74,3.74,0,0,1-1.61.91h0l-1.28-2.5h0a2.65,2.65,0,0,0,1.08-1,3,3,0,0,0,.37-1.45,1.89,1.89,0,0,0-.29-1.13.81.81,0,0,0-.73-.42.91.91,0,0,0-.63.22,1.59,1.59,0,0,0-.36.65,6.11,6.11,0,0,0-.26,1,3.09,3.09,0,0,1-.09.31l-.08.34v.06s0,.06,0,.09a10.22,10.22,0,0,1-.59,1.73,2.81,2.81,0,0,1-1,1.13,3.51,3.51,0,0,1-1.93.45,3.78,3.78,0,0,1-2-.51,3.34,3.34,0,0,1-1.3-1.47,5.53,5.53,0,0,1-.45-2.27,5.47,5.47,0,0,1,.34-2,3.8,3.8,0,0,1,1-1.5,3.87,3.87,0,0,1,1.5-.88h0l1.25,2.46h0a2.25,2.25,0,0,0-.94.83,2,2,0,0,0-.34,1.13,1.87,1.87,0,0,0,.26,1,.82.82,0,0,0,.68.4.79.79,0,0,0,.6-.29,1.53,1.53,0,0,0,.36-.68c.06-.25.17-.62.26-1.13a.11.11,0,0,0,0-.09s0-.05,0-.11v0s0,0,0-.06a11.11,11.11,0,0,1,.54-1.9,2.75,2.75,0,0,1,1-1.24,3.64,3.64,0,0,1,2.1-.51,3.8,3.8,0,0,1,2,.54,3.5,3.5,0,0,1,1.33,1.55,5.79,5.79,0,0,1,.46,2.41Zm-17.21-6.57V435h3v3.06Zm4.87,0V435h12.17v3.06Zm0-5.61v-3.07h12.17v3.07Zm4.17-5.9a1.45,1.45,0,0,0-1.1.37A1.29,1.29,0,0,0,124,428a1.25,1.25,0,0,0,.4,1,1.63,1.63,0,0,0,1.1.36l-2,.23a4.31,4.31,0,0,1-1.73-1.19,2.59,2.59,0,0,1-.59-1.73,2.87,2.87,0,0,1,1-2.38,4.79,4.79,0,0,1,3-.82h8.34v3.06Zm8.17-10.15a5.3,5.3,0,0,1-.54,2.5,3.35,3.35,0,0,1-1.53,1.58,5,5,0,0,1-2.44.57h-3.46a5.12,5.12,0,0,1-2.47-.57,3.49,3.49,0,0,1-1.55-1.58,5.55,5.55,0,0,1-.54-2.5,5.4,5.4,0,0,1,.36-2.15,3.06,3.06,0,0,1,1.11-1.42,4.5,4.5,0,0,1,1.93-.71h0l.93,2.84h0a1.92,1.92,0,0,0-1.13.51,1.27,1.27,0,0,0-.34.93,1.38,1.38,0,0,0,.48,1.16,1.85,1.85,0,0,0,1.33.43h3.24a1.77,1.77,0,0,0,1.3-.43,1.47,1.47,0,0,0,.48-1.16,1.22,1.22,0,0,0-.37-.93,1.66,1.66,0,0,0-1.05-.51h0l1-2.84h0a4.3,4.3,0,0,1,1.84.71,3.2,3.2,0,0,1,1.08,1.42,6,6,0,0,1,.34,2.15Zm0-10.57a5.45,5.45,0,0,1-.54,2.55,3.68,3.68,0,0,1-1.56,1.61,5.3,5.3,0,0,1-2.5.54H126a5.66,5.66,0,0,1-2.61-.54,3.75,3.75,0,0,1-1.65-1.55,5,5,0,0,1-.56-2.44,4.56,4.56,0,0,1,.62-2.41,4,4,0,0,1,1.81-1.5,6.86,6.86,0,0,1,2.9-.54h2.12v6.77h-2.15v-3.88h-.88a1.74,1.74,0,0,0-1.22.42,1.69,1.69,0,0,0,.06,2.36,2.06,2.06,0,0,0,1.44.45h3.32a1.8,1.8,0,0,0,1.33-.45,1.66,1.66,0,0,0,.48-1.31,1.69,1.69,0,0,0-.31-1,1.64,1.64,0,0,0-.91-.62h0l1-2.55h0a3.59,3.59,0,0,1,2.21,1.39,4.75,4.75,0,0,1,.74,2.72Zm-.17-16.73v3.07H120l.91,2.12h-3.29L116.47,392v-2.87Zm-14.91-11,14.91,3.46v3.17l-14.21-3.34v2.46h2.27v3h-5.1v-8.76Zm6.43-7.2.43-.77a2.39,2.39,0,0,1,.82.91,3,3,0,0,1,.25,1.25,3.91,3.91,0,0,1-.51,2,3.57,3.57,0,0,1-1.53,1.33,5.34,5.34,0,0,1-2.32.45h-1.25a5.58,5.58,0,0,1-2.49-.51,3.79,3.79,0,0,1-1.59-1.53,4.93,4.93,0,0,1-.54-2.41,4.88,4.88,0,0,1,.54-2.41,3.47,3.47,0,0,1,1.59-1.53,5.2,5.2,0,0,1,2.49-.54h1.13a8.52,8.52,0,0,1,1.9.23c.6.17,1.31.4,2.07.68a1.19,1.19,0,0,0,.29.11c.11,0,.19.09.28.12l6.92,2.72v3.23Zm-1.39.76a1.31,1.31,0,0,0-.42-1,1.72,1.72,0,0,0-1.19-.39h-1.2a1.82,1.82,0,0,0-1.19.37,1.43,1.43,0,0,0-.39,1.07,1.29,1.29,0,0,0,.42,1.05,1.58,1.58,0,0,0,1.16.4h1.22a1.66,1.66,0,0,0,1.17-.4,1.32,1.32,0,0,0,.42-1.05Zm9.87-11.17v3.07H120l.91,2.12h-3.29l-1.16-2.32v-2.87Z" transform="translate(-108.87 -291.94)"/><line class="cls-4" x1="111.8" y1="127.3" x2="71.26" y2="256.48"/><line class="cls-2" x1="138.27" y1="0.42" x2="88.98" y2="157.49"/><path class="cls-5" d="M236.15,402.29h-14.4l-2.21,8.11H210l15.85-51.14H232l15.87,51.14h-9.52Zm-2.41-8.7L229,376.19l-4.79,17.4ZM262,398.81a2.64,2.64,0,0,0,.68,1.95,2.49,2.49,0,0,0,1.9.71h1.39v8.93h-4.08a8.76,8.76,0,0,1-6.69-2.55q-2.38-2.5-2.38-7.14V359.26H262Zm36.37-12V410.4h-9.21V387a5.66,5.66,0,0,0-1.16-3.8,4.17,4.17,0,0,0-3.32-1.3,4.24,4.24,0,0,0-3.18,1.16,4.84,4.84,0,0,0-1.1,3.4V410.4h-9.19V373.89h9.19l.06,4.93a6.74,6.74,0,0,1,2.91-3.77,8.39,8.39,0,0,1,5.25-1.75,9.59,9.59,0,0,1,5.27,1.41,9,9,0,0,1,3.35,4.17c.08.26.17.45.25.71a9.24,9.24,0,0,1,3.6-4.48,8.92,8.92,0,0,1,5.44-1.81,8.79,8.79,0,0,1,8.68,5.78,17.69,17.69,0,0,1,1.16,6.8V410.4H307.1V387a5.65,5.65,0,0,0-1.13-3.8,4,4,0,0,0-3.24-1.3,4.21,4.21,0,0,0-3.26,1.24,5.31,5.31,0,0,0-1.13,3.66ZM337,410.91a15.6,15.6,0,0,1-7.2-1.53,10.55,10.55,0,0,1-4.57-4.42,14.73,14.73,0,0,1-1.56-7V386.05a14.4,14.4,0,0,1,1.56-6.89,10.31,10.31,0,0,1,4.57-4.36,16,16,0,0,1,7.2-1.5,16.2,16.2,0,0,1,7.22,1.5,10,10,0,0,1,4.57,4.36,14.06,14.06,0,0,1,1.56,6.89V398.1a14.34,14.34,0,0,1-1.56,6.92,10.23,10.23,0,0,1-4.57,4.39,16.2,16.2,0,0,1-7.22,1.5Zm0-8.56a4,4,0,0,0,3.11-1.22,4.8,4.8,0,0,0,1.11-3.4V386.36a4.66,4.66,0,0,0-1.11-3.31,4.55,4.55,0,0,0-6.2,0,4.55,4.55,0,0,0-1.14,3.31v11.37a4.8,4.8,0,0,0,1.11,3.4,4,4,0,0,0,3.12,1.22Zm32.08,8.56a20,20,0,0,1-6.6-1,12.46,12.46,0,0,1-4.85-3,11.44,11.44,0,0,1-2.75-4.79h0l7.46-3.89h0a7.62,7.62,0,0,0,2.95,3.24,8.28,8.28,0,0,0,4.33,1.13,6.26,6.26,0,0,0,3.4-.82,2.65,2.65,0,0,0,.54-4.11,4.66,4.66,0,0,0-1.9-1.08c-3.85-1.22-6.86-1.33-10.71-3.15a8.29,8.29,0,0,1-3.43-3.09,10.28,10.28,0,0,1-1.39-5.75,11.37,11.37,0,0,1,1.53-6,10.33,10.33,0,0,1,4.42-3.88,16,16,0,0,1,6.86-1.37,17.06,17.06,0,0,1,6,1,11.57,11.57,0,0,1,4.51,2.89,10.63,10.63,0,0,1,2.61,4.56h0l-7.37,3.66h0a7.14,7.14,0,0,0-2.44-2.78,6.26,6.26,0,0,0-3.46-1,5.65,5.65,0,0,0-3.15.76,2.33,2.33,0,0,0-1.13,2,2.24,2.24,0,0,0,.82,1.81,5.3,5.3,0,0,0,2,1.05c3.34,1,6.63,1.28,10,2.66a8.93,8.93,0,0,1,3.77,3.15,10.78,10.78,0,0,1,1.55,6.27A11.07,11.07,0,0,1,381,405.5a10.52,10.52,0,0,1-4.68,4,17.15,17.15,0,0,1-7.23,1.39ZM399.28,382v17a3,3,0,0,0,.54,1.92,1.89,1.89,0,0,0,1.56.71h2.47v8.93h-4.37c-3.23,0-5.61-.82-7.11-2.44s-2.27-4.05-2.27-7.22V382h-3.46v-8.11l3.46,0V363.29h9.18v10.6h4.57V382h-4.57" transform="translate(-108.87 -291.94)"/><path class="cls-1" d="M210.89,445.69h6.44L234,499.35H224l-9.9-35.91-9.89,35.91h-10Zm-7.37,36H225v9.13H203.52ZM239.15,461h9.67v38.32h-9.67Zm18.6,13.18a5,5,0,0,0-1.19-3.57,4.52,4.52,0,0,0-3.4-1.22,4.22,4.22,0,0,0-3.24,1.22,5.26,5.26,0,0,0-1.1,3.57l-.79-6.49a13.17,13.17,0,0,1,3.74-5.44,8.49,8.49,0,0,1,5.5-1.88,9,9,0,0,1,7.45,3.32c1.76,2.24,2.67,5.33,2.67,9.36v26.27h-9.64ZM289,499.89a16.7,16.7,0,0,1-7.57-1.59,11.08,11.08,0,0,1-4.79-4.67,15.43,15.43,0,0,1-1.64-7.32v-12.5a15.22,15.22,0,0,1,1.64-7.25,10.86,10.86,0,0,1,4.79-4.57,18.82,18.82,0,0,1,15.14,0,10.72,10.72,0,0,1,4.82,4.57,15.11,15.11,0,0,1,1.62,7.25v12.62a15.31,15.31,0,0,1-1.62,7.28,10.77,10.77,0,0,1-4.82,4.59,16.37,16.37,0,0,1-7.57,1.59Zm0-9a4.21,4.21,0,0,0,3.26-1.25,5.08,5.08,0,0,0,1.16-3.57V474.12a4.94,4.94,0,0,0-1.16-3.48,4.79,4.79,0,0,0-6.52,0,4.86,4.86,0,0,0-1.19,3.48v11.94a5.13,5.13,0,0,0,1.16,3.57,4.26,4.26,0,0,0,3.29,1.25Zm32.4,8.64q-5.1,0-7.48-2.55c-1.59-1.73-2.38-4.25-2.38-7.59V449.89h9.64v37.5a3.16,3.16,0,0,0,.56,2,2,2,0,0,0,1.65.74H326v9.35ZM308,461H326v8.5H308Zm25.23-15.34h9.61v53.66h-9.61Zm18.59,28.63a5,5,0,0,0-1.19-3.6,4.5,4.5,0,0,0-3.4-1.24,4.24,4.24,0,0,0-3.26,1.24,5.3,5.3,0,0,0-1.13,3.6l-.68-6.6a12.77,12.77,0,0,1,3.71-5.42,8.28,8.28,0,0,1,5.47-1.9,8.93,8.93,0,0,1,7.46,3.32q2.67,3.27,2.66,9.36v26.27h-9.64Zm32.09,25.57a17.32,17.32,0,0,1-8-1.7,11.76,11.76,0,0,1-5.08-5,16.17,16.17,0,0,1-1.76-7.8V475.6a18.08,18.08,0,0,1,1.71-8.19,11.68,11.68,0,0,1,4.9-5.19,15.62,15.62,0,0,1,7.74-1.79,14.28,14.28,0,0,1,7.57,2,12.72,12.72,0,0,1,4.76,5.73,22.83,22.83,0,0,1,1.61,9v6.72H376v-6.81h12.27v-2.72a5.25,5.25,0,0,0-1.39-3.85,4.65,4.65,0,0,0-3.51-1.42,4.88,4.88,0,0,0-3.91,1.61,6.74,6.74,0,0,0-1.39,4.51v10.46a5.86,5.86,0,0,0,1.44,4.25,5.45,5.45,0,0,0,4.11,1.51,5.2,5.2,0,0,0,3.23-1,5.48,5.48,0,0,0,2-2.89h0l8,3.06h0a11.48,11.48,0,0,1-4.42,7,14.66,14.66,0,0,1-8.62,2.35ZM405.09,461h10v38.32h-10ZM425,470.84a4.48,4.48,0,0,0-1.42-.54,8.83,8.83,0,0,0-1.87-.17,6.24,6.24,0,0,0-4.9,1.95,8,8,0,0,0-1.73,5.42l-.79-9.78a14.19,14.19,0,0,1,4.19-5.36,9.12,9.12,0,0,1,5.64-2,6,6,0,0,1,2.16.4,4.7,4.7,0,0,1,1.67,1.11Z" transform="translate(-108.87 -291.94)"/><path d="M266.42,539.35a6.68,6.68,0,0,1-2.52-.43,4.5,4.5,0,0,1-1.81-1.24,4.62,4.62,0,0,1-1-2.1h0l2.84-1.28h0a3.05,3.05,0,0,0,1,1.56,2.89,2.89,0,0,0,3.23.09,1.49,1.49,0,0,0,.54-1.25v-.76a1.39,1.39,0,0,0-.31-.94,3,3,0,0,0-.85-.6c-.34-.14-.83-.31-1.39-.48a.1.1,0,0,1-.06,0h-.06l-.14,0a18.1,18.1,0,0,1-2.29-.85,4,4,0,0,1-2.13-3.89v-.45a4.88,4.88,0,0,1,.62-2.52,3.88,3.88,0,0,1,1.79-1.62,6.67,6.67,0,0,1,2.86-.54,6,6,0,0,1,2.21.4,4,4,0,0,1,1.62,1.22,5,5,0,0,1,1,2h0l-2.69,1.31h0a3.13,3.13,0,0,0-.94-1.48,1.91,1.91,0,0,0-1.36-.51,2.59,2.59,0,0,0-1.5.4,1.42,1.42,0,0,0-.54,1.16v.57a1.61,1.61,0,0,0,.37,1,2.43,2.43,0,0,0,.85.62,9,9,0,0,0,1.45.51l.14.06a.2.2,0,0,1,.14.06c.06,0,.09,0,.11,0s.06,0,.12,0a10.47,10.47,0,0,1,2.1.85,3.9,3.9,0,0,1,1.41,1.36,4.45,4.45,0,0,1,.57,2.36v.73a4.78,4.78,0,0,1-.65,2.53,3.94,3.94,0,0,1-1.82,1.61,6.78,6.78,0,0,1-2.89.54Zm7.63-17.21h3.06v17h-3.06Zm1.22,14.09h8.27v2.95h-8.27Zm0-7h7.34v3h-7.34Zm0-7.09h8.27v3h-8.27Zm20.09,0h3.49v17H296.1V526.62l.14.77-2.86,9.32h-2.15l-2.87-9.1.17-1v12.56h-2.78v-17h3.52l3,10.38Zm7.83,7.49h4.22a1.37,1.37,0,0,0,1.36-.83,2.15,2.15,0,0,0,.17-.93v-1a2.47,2.47,0,0,0-.17-1,1.54,1.54,0,0,0-.54-.59,1.32,1.32,0,0,0-.82-.23h-4.22v-3h4.22a5.78,5.78,0,0,1,2.5.54,3.86,3.86,0,0,1,1.61,1.59,4.94,4.94,0,0,1,.57,2.41v1.42a4.93,4.93,0,0,1-.57,2.38,4,4,0,0,1-1.64,1.56,5.29,5.29,0,0,1-2.47.54h-4.22Zm-1.42-7.49h3.06v17h-3.06Zm12.47,0h3.06v17h-3.06Zm1.22,14.09h8.28v2.95h-8.28Zm0-7h7.34v3h-7.34Zm0-7.09h8.28v3h-8.28Zm11.79,7.06h4.48a1.49,1.49,0,0,0,.77-.17,1.29,1.29,0,0,0,.51-.57,1.87,1.87,0,0,0,.17-.82v-.93a2.16,2.16,0,0,0-.17-.88,1.29,1.29,0,0,0-.51-.57,1.6,1.6,0,0,0-.77-.17h-4.48v-3h4.54a5,5,0,0,1,2.41.54,3.78,3.78,0,0,1,1.59,1.53,5.07,5.07,0,0,1,.53,2.41v1a5,5,0,0,1-.53,2.41,3.93,3.93,0,0,1-1.59,1.59,5,5,0,0,1-2.41.54h-4.54Zm-1.3-7.06h3v17h-3Zm4.28,9.5,3-.54,3.66,8.08h-3.49Zm13.21-9.5h3.17l2.64,11.57,2.61-11.57h3.2l-4.39,17h-2.84Zm16.13,0h2l5.3,17h-3.17l-3.15-11.4-3.12,11.4H354.3Zm-2.33,11.46h6.81v2.89h-6.81Zm15.37,5.75a5.79,5.79,0,0,1-2.78-.62,4.12,4.12,0,0,1-1.73-1.82,6.11,6.11,0,0,1-.62-2.89v-6.69a6.11,6.11,0,0,1,.62-2.89,4.17,4.17,0,0,1,1.73-1.84,5.68,5.68,0,0,1,2.78-.63,5.2,5.2,0,0,1,2.69.63,4.45,4.45,0,0,1,1.7,1.92,9,9,0,0,1,.71,3.24h-3.15a5,5,0,0,0-.31-1.51,2.08,2.08,0,0,0-.65-.9,1.59,1.59,0,0,0-1-.29,2.16,2.16,0,0,0-1.08.26,1.81,1.81,0,0,0-.68.76,3.32,3.32,0,0,0-.23,1.25V534a3,3,0,0,0,.23,1.22,1.81,1.81,0,0,0,.68.76,1.9,1.9,0,0,0,1.08.29,1.6,1.6,0,0,0,1-.31,2.06,2.06,0,0,0,.68-.88,5.29,5.29,0,0,0,.28-1.53h3.15a9.22,9.22,0,0,1-.74,3.26,4.21,4.21,0,0,1-1.67,1.9,5.3,5.3,0,0,1-2.69.62Zm12,0a5.74,5.74,0,0,1-2.78-.62,4.08,4.08,0,0,1-1.76-1.82,6.46,6.46,0,0,1-.59-2.86V522.14h3.06v12a2.28,2.28,0,0,0,.54,1.62,2.34,2.34,0,0,0,3.06,0,2.3,2.3,0,0,0,.57-1.62v-12h3.06v11.91a6.07,6.07,0,0,1-.62,2.86,4.08,4.08,0,0,1-1.76,1.82,5.74,5.74,0,0,1-2.78.62Zm12.33,0a5.74,5.74,0,0,1-2.78-.62,4,4,0,0,1-1.75-1.82,6.32,6.32,0,0,1-.63-2.86V522.14h3.06v12a2.3,2.3,0,0,0,.57,1.62,2,2,0,0,0,1.53.57,2.08,2.08,0,0,0,1.53-.57,2.3,2.3,0,0,0,.57-1.62v-12h3.06v11.91a6.07,6.07,0,0,1-.62,2.86,4.08,4.08,0,0,1-1.76,1.82,5.74,5.74,0,0,1-2.78.62Zm17.24-17.21h3.48v17h-2.75V526.62l.14.77-2.86,9.32H410l-2.87-9.1.17-1v12.56h-2.77v-17H408l3,10.38Zm12,0h3.06v17h-3.06Zm1.22,14.09h8.28v2.95H427.4Zm0-7h7.34v3H427.4Zm0-7.09h8.28v3H427.4Zm15.2,17.21a6.86,6.86,0,0,1-2.56-.43,4.47,4.47,0,0,1-1.78-1.24,5.09,5.09,0,0,1-1-2.1h0l2.86-1.28h0a3,3,0,0,0,1,1.56,2.59,2.59,0,0,0,1.68.54,2.29,2.29,0,0,0,1.55-.45,1.51,1.51,0,0,0,.57-1.25v-.76a1.36,1.36,0,0,0-.34-.94,2.49,2.49,0,0,0-.82-.6c-.37-.14-.82-.31-1.39-.48,0,0-.06,0-.08,0h-.06l-.14,0a18.89,18.89,0,0,1-2.27-.85,3.83,3.83,0,0,1-1.5-1.39,4.31,4.31,0,0,1-.63-2.5v-.45a5.08,5.08,0,0,1,.6-2.52,4,4,0,0,1,1.81-1.62,6.57,6.57,0,0,1,2.84-.54,6.21,6.21,0,0,1,2.24.4,4,4,0,0,1,1.61,1.22,5.79,5.79,0,0,1,1,2h0l-2.7,1.31h0a3.12,3.12,0,0,0-.93-1.48,2,2,0,0,0-1.36-.51,2.49,2.49,0,0,0-1.51.4,1.36,1.36,0,0,0-.53,1.16v.57a1.59,1.59,0,0,0,.34,1,2.42,2.42,0,0,0,.87.62,8.67,8.67,0,0,0,1.45.51s.09,0,.14.06a.39.39,0,0,1,.14.06l.12,0s.05,0,.08,0a11.63,11.63,0,0,1,2.13.85,3.77,3.77,0,0,1,1.39,1.36,4.46,4.46,0,0,1,.56,2.36v.73a4.68,4.68,0,0,1-.62,2.53,4,4,0,0,1-1.84,1.61,6.79,6.79,0,0,1-2.86.54Zm9.8-15.79h3.06v15.62H452.4Zm-3.71-1.42h10.52v3H448.69Z" transform="translate(-108.87 -291.94)"/><line class="cls-6" x1="128.95" y1="127.3" x2="88.38" y2="256.48"/></svg>