<?xml version="1.0" encoding="UTF-8"?>
<!DOCTYPE svg PUBLIC "-//W3C//DTD SVG 1.1//EN" "http://www.w3.org/Graphics/SVG/1.1/DTD/svg11.dtd">
<!-- Creator: CorelDRAW 2020 (64-Bit) -->
<svg xmlns="http://www.w3.org/2000/svg" xml:space="preserve" width="1576px" height="1071px" version="1.1" style="shape-rendering:geometricPrecision; text-rendering:geometricPrecision; image-rendering:optimizeQuality; fill-rule:evenodd; clip-rule:evenodd"
viewBox="0 0 134.84 91.65"
 xmlns:xlink="http://www.w3.org/1999/xlink"
 xmlns:xodm="http://www.corel.com/coreldraw/odm/2003">
 <defs>
  <style type="text/css">
   <![CDATA[
    .str3 {stroke:black;stroke-width:1.01;stroke-miterlimit:2.61313}
    .str0 {stroke:#F3080F;stroke-width:1.01;stroke-miterlimit:2.61313}
    .str2 {stroke:#FEFEFE;stroke-width:0.76;stroke-miterlimit:2.61313}
    .str1 {stroke:#ED3237;stroke-width:1.52;stroke-miterlimit:2.61313}
    .fil4 {fill:none}
    .fil1 {fill:none;fill-rule:nonzero}
    .fil5 {fill:#FEFEFE;fill-rule:nonzero}
    .fil0 {fill:#FEFEFE;fill-rule:nonzero}
    .fil6 {fill:black;fill-rule:nonzero}
    .fil2 {fill:#F3080F;fill-rule:nonzero}
    .fil3 {fill:#F3080F;fill-rule:nonzero}
   ]]>
  </style>
 </defs>
 <g id="Layer_x0020_1">
  <metadata id="CorelCorpID_0Corel-Layer"/>
  <g id="_1784710488656">
   <polygon class="fil0" points="67.96,32.69 68.55,31.75 67.96,31.38 "/>
   <polygon class="fil0" points="29.14,73.42 28.41,74.59 28.72,74.79 "/>
   <polygon class="fil0" points="28.41,74.59 27.22,76.47 28.03,76.97 28.72,74.79 "/>
   <polygon class="fil0" points="26.04,78.34 24.86,80.22 26.66,81.35 27.34,79.16 "/>
   <polygon class="fil0" points="31.27,65.91 30.08,67.78 30.78,68.22 31.46,66.03 "/>
   <polygon class="fil0" points="24.17,77.16 22.98,79.03 24.86,80.22 26.04,78.34 "/>
   <polygon class="fil0" points="34.12,57.24 32.94,59.1 33.53,59.47 34.21,57.28 34.14,57.23 "/>
   <polygon class="fil0" points="31.76,60.97 30.57,62.85 32.15,63.84 32.84,61.66 "/>
   <polygon class="fil0" points="29.39,64.72 28.21,66.6 30.08,67.78 31.27,65.91 "/>
   <polygon class="fil0" points="28.21,66.6 27.02,68.47 28.9,69.66 30.08,67.78 "/>
   <polygon class="fil0" points="27.02,68.47 25.84,70.35 27.72,71.53 28.9,69.66 "/>
   <polygon class="fil0" points="25.84,70.35 24.66,72.22 26.53,73.41 27.72,71.53 "/>
   <polygon class="fil0" points="24.66,72.22 23.47,74.1 25.35,75.28 26.53,73.41 "/>
   <polygon class="fil0" points="23.47,74.1 22.29,75.97 24.17,77.16 25.35,75.28 "/>
   <polygon class="fil0" points="22.29,75.97 21.11,77.85 22.98,79.03 24.17,77.16 "/>
   <polygon class="fil0" points="31.07,57.91 29.88,59.79 31.76,60.97 32.94,59.1 "/>
   <polygon class="fil0" points="29.88,59.79 28.7,61.67 30.57,62.85 31.76,60.97 "/>
   <polygon class="fil0" points="29.19,56.73 28.01,58.61 29.88,59.79 31.07,57.91 30.39,57.49 29.36,57.56 29.55,56.96 "/>
   <polygon class="fil0" points="25.64,62.36 24.46,64.23 26.33,65.42 27.52,63.54 "/>
   <polygon class="fil0" points="24.46,64.23 23.27,66.11 25.15,67.29 26.33,65.42 "/>
   <polygon class="fil0" points="23.27,66.11 22.09,67.98 23.97,69.17 25.15,67.29 "/>
   <polygon class="fil0" points="22.09,67.98 20.91,69.86 22.78,71.04 23.97,69.17 "/>
   <polygon class="fil0" points="20.91,69.86 19.72,71.73 21.6,72.92 22.78,71.04 "/>
   <polygon class="fil0" points="32.55,47.25 32.05,48.05 32.26,48.18 "/>
   <polygon class="fil0" points="32.05,48.05 30.87,49.92 31.59,50.38 32.26,48.18 "/>
   <polygon class="fil0" points="29.68,51.8 28.5,53.67 30.23,54.76 30.91,52.57 "/>
   <polygon class="fil0" points="28.5,53.67 27.32,55.55 29.19,56.73 30.03,55.4 30.23,54.76 "/>
   <polygon class="fil0" points="27.32,55.55 26.13,57.42 28.01,58.61 29.19,56.73 "/>
   <polygon class="fil0" points="24.95,59.3 23.77,61.17 25.64,62.36 26.82,60.48 "/>
   <polygon class="fil0" points="23.77,61.17 22.58,63.05 24.46,64.23 25.64,62.36 "/>
   <polygon class="fil0" points="22.58,63.05 21.4,64.92 23.27,66.11 24.46,64.23 "/>
   <polygon class="fil0" points="21.4,64.92 20.22,66.8 22.09,67.98 23.27,66.11 "/>
   <polygon class="fil0" points="16.67,72.42 15.48,74.3 17.36,75.48 18.54,73.61 "/>
   <polygon class="fil0" points="35.08,39.09 34.91,39.36 34.98,39.41 "/>
   <polygon class="fil0" points="33.72,41.24 32.54,43.11 33.62,43.8 34.3,41.6 "/>
   <polygon class="fil0" points="32.54,43.11 31.36,44.99 32.94,45.99 33.62,43.8 "/>
   <polygon class="fil0" points="31.36,44.99 30.17,46.86 32.05,48.05 32.55,47.25 32.94,45.99 "/>
   <polygon class="fil0" points="30.17,46.86 28.99,48.74 30.87,49.92 32.05,48.05 "/>
   <polygon class="fil0" points="28.99,48.74 27.81,50.61 29.68,51.8 30.87,49.92 "/>
   <polygon class="fil0" points="24.26,56.24 23.07,58.12 24.95,59.3 26.13,57.42 "/>
   <polygon class="fil0" points="21.89,59.99 20.71,61.87 22.58,63.05 23.77,61.17 "/>
   <polygon class="fil0" points="35.4,34.43 34.22,36.31 35.66,37.22 36.34,35.02 "/>
   <polygon class="fil0" points="34.22,36.31 33.03,38.18 34.91,39.36 35.08,39.09 35.66,37.22 "/>
   <polygon class="fil0" points="31.85,40.06 30.67,41.93 32.54,43.11 33.72,41.24 "/>
   <polygon class="fil0" points="30.67,41.93 29.48,43.81 31.36,44.99 32.54,43.11 "/>
   <polygon class="fil0" points="28.3,45.68 27.12,47.56 28.99,48.74 30.17,46.86 "/>
   <polygon class="fil0" points="22.38,55.06 21.2,56.93 23.07,58.12 24.26,56.24 "/>
   <polygon class="fil0" points="20.02,58.81 18.83,60.68 20.71,61.87 21.89,59.99 "/>
   <polygon class="fil0" points="17.65,62.56 16.47,64.43 18.34,65.62 19.52,63.74 "/>
   <polygon class="fil0" points="16.47,64.43 15.28,66.31 17.16,67.49 18.34,65.62 "/>
   <polygon class="fil0" points="14.1,68.18 12.92,70.06 14.79,71.24 15.97,69.37 "/>
   <polygon class="fil0" points="40.13,22.78 39.44,23.87 39.73,24.06 "/>
   <polygon class="fil0" points="39.44,23.87 38.26,25.75 39.06,26.25 39.73,24.06 "/>
   <polygon class="fil0" points="38.26,25.75 37.07,27.62 38.38,28.44 39.06,26.25 "/>
   <polygon class="fil0" points="37.07,27.62 35.89,29.5 37.7,30.64 38.38,28.44 "/>
   <polygon class="fil0" points="31.16,37 29.97,38.87 31.85,40.06 33.03,38.18 "/>
   <polygon class="fil0" points="27.61,42.62 26.42,44.5 28.3,45.68 29.48,43.81 "/>
   <polygon class="fil0" points="26.42,44.5 25.24,46.37 27.12,47.56 28.3,45.68 "/>
   <polygon class="fil0" points="24.06,48.25 22.87,50.12 24.75,51.31 25.93,49.43 "/>
   <polygon class="fil0" points="19.32,55.75 18.14,57.62 20.02,58.81 21.2,56.93 "/>
   <polygon class="fil0" points="16.96,59.5 15.77,61.37 17.65,62.56 18.83,60.68 "/>
   <polygon class="fil0" points="14.59,63.25 13.41,65.12 15.28,66.31 16.47,64.43 "/>
   <polygon class="fil0" points="13.41,65.12 12.22,67 14.1,68.18 15.28,66.31 "/>
   <polygon class="fil0" points="38,22.01 37.57,22.69 39.44,23.87 40.13,22.78 40.37,22.01 "/>
   <polygon class="fil0" points="37.57,22.69 36.38,24.56 38.26,25.75 39.44,23.87 "/>
   <polygon class="fil0" points="31.65,32.06 30.47,33.94 32.34,35.12 33.52,33.25 "/>
   <polygon class="fil0" points="29.28,35.81 28.1,37.69 29.97,38.87 31.16,37 "/>
   <polygon class="fil0" points="24.55,43.31 23.37,45.19 25.24,46.37 26.42,44.5 "/>
   <polygon class="fil0" points="23.37,45.19 22.18,47.06 24.06,48.25 25.24,46.37 "/>
   <polygon class="fil0" points="21,48.94 19.82,50.82 21.69,52 22.87,50.12 "/>
   <polygon class="fil0" points="19.82,50.82 18.63,52.69 20.51,53.87 21.69,52 "/>
   <polygon class="fil0" points="18.63,52.69 17.45,54.57 19.32,55.75 20.51,53.87 "/>
   <polygon class="fil0" points="17.45,54.57 16.27,56.44 18.14,57.62 19.32,55.75 "/>
   <polygon class="fil0" points="16.27,56.44 15.08,58.32 16.96,59.5 18.14,57.62 "/>
   <polygon class="fil0" points="15.08,58.32 13.9,60.19 15.77,61.37 16.96,59.5 "/>
   <polygon class="fil0" points="13.9,60.19 12.72,62.07 14.59,63.25 15.77,61.37 "/>
   <polygon class="fil0" points="34.51,23.38 33.32,25.26 35.2,26.44 36.38,24.56 "/>
   <polygon class="fil0" points="33.32,25.26 32.14,27.13 34.02,28.31 35.2,26.44 "/>
   <polygon class="fil0" points="30.96,29.01 29.77,30.88 31.65,32.06 32.83,30.19 "/>
   <polygon class="fil0" points="29.77,30.88 28.59,32.76 30.47,33.94 31.65,32.06 "/>
   <polygon class="fil0" points="27.41,34.63 26.22,36.51 28.1,37.69 29.28,35.81 "/>
   <polygon class="fil0" points="14.39,55.26 13.21,57.13 15.08,58.32 16.27,56.44 "/>
   <polygon class="fil0" points="13.21,57.13 12.02,59.01 13.9,60.19 15.08,58.32 "/>
   <polygon class="fil0" points="12.02,59.01 11.84,59.29 11.84,61.52 12.72,62.07 13.9,60.19 "/>
   <polygon class="fil0" points="11.84,63.45 12.72,62.07 11.84,61.52 "/>
   <polygon class="fil0" points="32.77,21.98 32.63,22.2 34.51,23.38 35.38,21.99 "/>
   <polygon class="fil0" points="30.26,25.95 29.08,27.82 30.96,29.01 32.14,27.13 "/>
   <polygon class="fil0" points="26.71,31.57 25.53,33.45 27.41,34.63 28.59,32.76 "/>
   <polygon class="fil0" points="25.53,33.45 24.35,35.32 26.22,36.51 27.41,34.63 "/>
   <polygon class="fil0" points="24.35,35.32 23.17,37.2 25.04,38.38 26.22,36.51 "/>
   <polygon class="fil0" points="21.98,39.07 20.8,40.95 22.67,42.13 23.86,40.26 "/>
   <polygon class="fil0" points="19.62,42.82 18.43,44.7 20.31,45.88 21.49,44.01 "/>
   <polygon class="fil0" points="16.07,48.45 14.88,50.32 16.76,51.51 17.94,49.63 "/>
   <polygon class="fil0" points="14.88,50.32 13.7,52.2 15.57,53.38 16.76,51.51 "/>
   <polygon class="fil0" points="13.7,52.2 12.52,54.07 14.39,55.26 15.57,53.38 "/>
   <polygon class="fil0" points="12.52,54.07 11.84,55.14 11.84,56.27 13.21,57.13 14.39,55.26 "/>
   <polygon class="fil0" points="11.84,58.89 12.02,59.01 13.21,57.13 11.84,56.27 "/>
   <polygon class="fil0" points="11.84,59.29 12.02,59.01 11.84,58.89 "/>
   <polygon class="fil0" points="32.29,21.98 32.63,22.2 32.77,21.98 "/>
   <polygon class="fil0" points="29.57,22.89 28.39,24.76 30.26,25.95 31.45,24.07 "/>
   <polygon class="fil0" points="28.39,24.76 27.21,26.64 29.08,27.82 30.26,25.95 "/>
   <polygon class="fil0" points="26.02,28.51 24.84,30.39 26.71,31.57 27.9,29.7 "/>
   <polygon class="fil0" points="24.84,30.39 23.66,32.26 25.53,33.45 26.71,31.57 "/>
   <polygon class="fil0" points="23.66,32.26 22.47,34.14 24.35,35.32 25.53,33.45 "/>
   <polygon class="fil0" points="17.74,41.64 16.56,43.51 18.43,44.7 19.62,42.82 "/>
   <polygon class="fil0" points="16.56,43.51 15.37,45.39 17.25,46.57 18.43,44.7 "/>
   <polygon class="fil0" points="14.19,47.27 13.01,49.14 14.88,50.32 16.07,48.45 "/>
   <polygon class="fil0" points="19.41,34.83 18.23,36.71 20.11,37.89 21.29,36.01 "/>
   <polygon class="fil0" points="18.23,36.71 17.05,38.58 18.92,39.76 20.11,37.89 "/>
   <polygon class="fil0" points="17.05,38.58 15.86,40.46 17.74,41.64 18.92,39.76 "/>
   <polygon class="fil0" points="14.68,42.33 13.5,44.21 15.37,45.39 16.56,43.51 "/>
   <polygon class="fil0" points="13.5,44.21 12.31,46.08 14.19,47.27 15.37,45.39 "/>
   <polygon class="fil0" points="12.31,46.08 11.84,46.83 11.84,48.41 13.01,49.14 14.19,47.27 "/>
   <polygon class="fil0" points="11.84,50.98 13.01,49.14 11.84,48.41 "/>
   <polygon class="fil0" points="24.92,21.95 24.64,22.4 26.51,23.58 27.54,21.96 "/>
   <polygon class="fil0" points="24.64,22.4 23.46,24.27 25.33,25.46 26.51,23.58 "/>
   <polygon class="fil0" points="23.46,24.27 22.27,26.15 24.15,27.33 25.33,25.46 "/>
   <polygon class="fil0" points="22.27,26.15 21.09,28.02 22.96,29.21 24.15,27.33 "/>
   <polygon class="fil0" points="21.09,28.02 19.91,29.9 21.78,31.08 22.96,29.21 "/>
   <polygon class="fil0" points="19.91,29.9 18.72,31.77 20.6,32.96 21.78,31.08 "/>
   <polygon class="fil0" points="17.54,33.65 16.36,35.52 18.23,36.71 19.41,34.83 "/>
   <polygon class="fil0" points="16.36,35.52 15.17,37.4 17.05,38.58 18.23,36.71 "/>
   <polygon class="fil0" points="15.17,37.4 13.99,39.27 15.86,40.46 17.05,38.58 "/>
   <polygon class="fil0" points="13.99,39.27 12.81,41.15 14.68,42.33 15.86,40.46 "/>
   <polygon class="fil0" points="12.81,41.15 11.84,42.67 11.84,43.16 13.5,44.21 14.68,42.33 "/>
   <polygon class="fil0" points="19.21,26.84 18.03,28.71 19.91,29.9 21.09,28.02 "/>
   <polygon class="fil0" points="16.85,30.59 15.66,32.46 17.54,33.65 18.72,31.77 "/>
   <polygon class="fil0" points="15.66,32.46 14.48,34.34 16.36,35.52 17.54,33.65 "/>
   <polygon class="fil0" points="13.3,36.21 12.11,38.09 13.99,39.27 15.17,37.4 "/>
   <polygon class="fil0" points="18.52,23.78 17.34,25.66 19.21,26.84 20.4,24.96 "/>
   <polygon class="fil0" points="17.34,25.66 16.16,27.53 18.03,28.71 19.21,26.84 "/>
   <polygon class="fil0" points="16.16,27.53 14.97,29.41 16.85,30.59 18.03,28.71 "/>
   <polygon class="fil0" points="14.97,29.41 13.79,31.28 15.66,32.46 16.85,30.59 "/>
   <polygon class="fil0" points="12.61,33.16 11.84,34.36 11.84,35.3 13.3,36.21 14.48,34.34 "/>
   <polygon class="fil0" points="11.84,37.92 12.11,38.09 13.3,36.21 11.84,35.3 "/>
   <polygon class="fil0" points="17.07,21.92 16.65,22.6 18.52,23.78 19.69,21.93 "/>
   <polygon class="fil0" points="16.65,22.6 15.46,24.47 17.34,25.66 18.52,23.78 "/>
   <polygon class="fil0" points="15.46,24.47 14.28,26.35 16.16,27.53 17.34,25.66 "/>
   <polygon class="fil0" points="14.46,21.91 13.59,23.29 15.46,24.47 16.65,22.6 15.57,21.91 "/>
   <polygon class="fil0" points="13.59,23.29 12.41,25.16 14.28,26.35 15.46,24.47 "/>
   <polygon class="fil0" points="12.41,25.16 11.84,26.05 11.84,27.43 13.1,28.22 14.28,26.35 "/>
   <polygon class="fil0" points="11.84,30.05 11.91,30.1 13.1,28.22 11.84,27.43 "/>
   <polygon class="fil0" points="11.84,22.19 13.59,23.29 14.46,21.91 11.84,21.9 "/>
   <polygon class="fil0" points="11.84,26.05 12.41,25.16 11.84,24.81 "/>
  </g>
  <polygon class="fil1 str0" points="0.51,71.41 0.51,10.5 55.42,10.5 55.42,20.6 10.61,20.6 10.61,71.41 "/>
  <polygon class="fil2" points="134.84,42.5 134.84,89.72 32.05,89.72 35.22,79.61 124.73,79.61 124.73,42.5 "/>
  <path class="fil3" d="M7.73 68.69l0 -1.12c0,-0.25 -0.06,-0.45 -0.2,-0.59 -0.13,-0.14 -0.32,-0.21 -0.56,-0.21l-2.45 0c-0.25,0 -0.43,0.07 -0.57,0.21 -0.13,0.14 -0.19,0.34 -0.19,0.59l0 1.12 -1.05 0 0 -1.15c0,-0.4 0.07,-0.74 0.2,-1.03 0.14,-0.28 0.34,-0.49 0.61,-0.64 0.27,-0.15 0.58,-0.22 0.95,-0.22l2.54 0c0.36,0 0.67,0.07 0.94,0.21 0.26,0.15 0.47,0.36 0.61,0.65 0.15,0.28 0.22,0.62 0.22,1.03l0 1.15 -1.05 0zm-5.02 0.63l0 -1.09 6.07 0 0 1.09 -6.07 0zm0 -4.56l0 -1.08 1.08 0 0 1.08 -1.08 0zm1.73 0l0 -1.08 4.34 0 0 1.08 -4.34 0zm0 -4.11l0 -1.08 4.34 1.38 0 0.81 -4.34 1.38 0 -1.07 2.79 -0.71 -2.79 -0.71zm3.25 -0.98l0 -1.09 1.09 0 0 1.09 -1.09 0zm1.15 -5.24c0,0.29 -0.04,0.56 -0.12,0.79 -0.08,0.23 -0.2,0.42 -0.36,0.57 -0.16,0.16 -0.35,0.27 -0.57,0.33l0 0 -0.46 -0.89 0 0c0.17,-0.08 0.3,-0.2 0.39,-0.35 0.08,-0.15 0.13,-0.32 0.13,-0.51 0,-0.17 -0.03,-0.31 -0.1,-0.41 -0.06,-0.09 -0.15,-0.15 -0.26,-0.15 -0.1,0 -0.17,0.03 -0.23,0.09 -0.06,0.06 -0.1,0.13 -0.13,0.23 -0.02,0.09 -0.06,0.21 -0.09,0.38 -0.01,0.03 -0.02,0.07 -0.03,0.11 -0.01,0.04 -0.02,0.08 -0.03,0.11 0,0.01 0,0.02 0,0.03 0,0.01 -0.01,0.02 -0.01,0.03 -0.06,0.24 -0.13,0.45 -0.21,0.61 -0.08,0.16 -0.2,0.3 -0.37,0.41 -0.17,0.11 -0.39,0.16 -0.68,0.16 -0.27,0 -0.51,-0.06 -0.71,-0.18 -0.2,-0.12 -0.35,-0.3 -0.46,-0.53 -0.11,-0.22 -0.16,-0.5 -0.16,-0.81 0,-0.27 0.04,-0.5 0.11,-0.71 0.08,-0.22 0.2,-0.4 0.35,-0.54 0.15,-0.14 0.33,-0.25 0.54,-0.31l0 0 0.43 0.88 0 0c-0.14,0.07 -0.25,0.17 -0.33,0.29 -0.07,0.12 -0.11,0.25 -0.11,0.41 0,0.16 0.03,0.28 0.09,0.37 0.06,0.09 0.14,0.14 0.24,0.14 0.09,0 0.16,-0.04 0.21,-0.1 0.06,-0.07 0.1,-0.15 0.13,-0.24 0.03,-0.1 0.06,-0.23 0.1,-0.4 0,-0.02 0,-0.03 0,-0.04 0.01,-0.01 0.01,-0.02 0.01,-0.04 0.01,0 0.01,-0.01 0.01,-0.01 0,-0.01 0,-0.01 0,-0.02 0.06,-0.27 0.12,-0.5 0.19,-0.67 0.08,-0.18 0.2,-0.33 0.38,-0.45 0.17,-0.12 0.42,-0.19 0.74,-0.19 0.28,0 0.52,0.07 0.73,0.2 0.21,0.13 0.36,0.31 0.48,0.56 0.11,0.24 0.16,0.52 0.16,0.85zm-6.13 -2.35l0 -1.09 1.08 0 0 1.09 -1.08 0zm1.73 0l0 -1.09 4.34 0 0 1.09 -4.34 0zm0 -1.99l0 -1.1 4.34 0 0 1.1 -4.34 0zm1.5 -2.11c-0.18,0 -0.31,0.05 -0.41,0.14 -0.09,0.08 -0.14,0.21 -0.14,0.38 0,0.16 0.05,0.28 0.14,0.37 0.1,0.08 0.23,0.12 0.41,0.12l-0.74 0.09c-0.27,-0.11 -0.48,-0.25 -0.62,-0.42 -0.14,-0.18 -0.21,-0.38 -0.21,-0.62 0,-0.37 0.13,-0.65 0.38,-0.85 0.25,-0.2 0.6,-0.3 1.06,-0.3l2.97 0 0 1.09 -2.84 0zm2.9 -3.62c0,0.35 -0.06,0.65 -0.19,0.9 -0.12,0.25 -0.31,0.44 -0.55,0.57 -0.24,0.13 -0.52,0.19 -0.86,0.19l-1.24 0c-0.34,0 -0.63,-0.06 -0.88,-0.19 -0.24,-0.13 -0.43,-0.32 -0.55,-0.57 -0.13,-0.25 -0.19,-0.55 -0.19,-0.9 0,-0.3 0.04,-0.55 0.12,-0.76 0.09,-0.21 0.22,-0.38 0.4,-0.5 0.18,-0.13 0.41,-0.21 0.68,-0.25l0 0 0.34 1 0 0c-0.18,0.04 -0.32,0.1 -0.4,0.18 -0.09,0.09 -0.13,0.2 -0.13,0.34 0,0.18 0.06,0.32 0.17,0.41 0.11,0.1 0.27,0.15 0.48,0.15l1.16 0c0.2,0 0.35,-0.05 0.46,-0.15 0.11,-0.09 0.17,-0.23 0.17,-0.41 0,-0.13 -0.04,-0.25 -0.13,-0.33 -0.08,-0.09 -0.21,-0.15 -0.38,-0.19l0 0 0.35 -1 0 0c0.27,0.04 0.49,0.12 0.67,0.25 0.17,0.12 0.3,0.29 0.38,0.5 0.08,0.21 0.12,0.46 0.12,0.76zm0 -3.76c0,0.35 -0.06,0.66 -0.19,0.91 -0.13,0.25 -0.32,0.44 -0.56,0.57 -0.25,0.13 -0.54,0.2 -0.88,0.2l-1.12 0c-0.36,0 -0.67,-0.06 -0.93,-0.19 -0.25,-0.13 -0.45,-0.32 -0.58,-0.56 -0.14,-0.24 -0.2,-0.53 -0.2,-0.87 0,-0.34 0.07,-0.62 0.22,-0.86 0.15,-0.24 0.36,-0.41 0.65,-0.54 0.28,-0.12 0.62,-0.18 1.02,-0.18l0.76 0 0 2.41 -0.77 0 0 -1.39 -0.31 0c-0.18,0 -0.33,0.05 -0.44,0.16 -0.1,0.1 -0.15,0.23 -0.15,0.4 0,0.19 0.06,0.33 0.18,0.44 0.12,0.1 0.29,0.16 0.51,0.16l1.18 0c0.21,0 0.37,-0.06 0.48,-0.17 0.12,-0.11 0.17,-0.26 0.17,-0.46 0,-0.15 -0.04,-0.27 -0.11,-0.37 -0.07,-0.1 -0.18,-0.17 -0.33,-0.22l0 0 0.35 -0.91 0 0c0.35,0.08 0.61,0.25 0.78,0.5 0.18,0.25 0.27,0.58 0.27,0.97zm-0.06 -5.96l0 1.09 -4.81 0 0.32 0.76 -1.17 0 -0.41 -0.84 0 -1.01 6.07 0zm-5.31 -3.93l5.31 1.23 0 1.13 -5.06 -1.19 0 0.88 0.81 0 0 1.07 -1.82 0 0 -3.12 0.76 0zm2.29 -2.57l0.15 -0.27c0.13,0.08 0.23,0.19 0.29,0.32 0.07,0.14 0.1,0.29 0.1,0.45 0,0.28 -0.06,0.52 -0.19,0.73 -0.12,0.2 -0.3,0.36 -0.54,0.47 -0.24,0.11 -0.51,0.16 -0.83,0.16l-0.45 0c-0.35,0 -0.64,-0.06 -0.89,-0.19 -0.25,-0.12 -0.43,-0.3 -0.56,-0.54 -0.13,-0.24 -0.2,-0.53 -0.2,-0.86 0,-0.33 0.07,-0.62 0.2,-0.86 0.13,-0.24 0.32,-0.42 0.56,-0.54 0.25,-0.13 0.55,-0.19 0.9,-0.19l0.4 0c0.23,0 0.45,0.03 0.67,0.08 0.22,0.05 0.47,0.14 0.75,0.25 0.03,0.01 0.06,0.02 0.09,0.03 0.04,0.01 0.07,0.03 0.1,0.04l2.47 0.97 0 1.16 -3.02 -1.21zm-0.49 0.27c0,-0.16 -0.05,-0.29 -0.15,-0.38 -0.1,-0.08 -0.25,-0.13 -0.43,-0.13l-0.43 0c-0.18,0 -0.32,0.05 -0.42,0.13 -0.09,0.09 -0.14,0.22 -0.14,0.38 0,0.17 0.05,0.29 0.15,0.38 0.09,0.09 0.23,0.13 0.41,0.13l0.43 0c0.19,0 0.33,-0.04 0.43,-0.13 0.1,-0.09 0.15,-0.22 0.15,-0.38zm3.51 -3.98l0 1.09 -4.81 0 0.32 0.76 -1.17 0 -0.41 -0.83 0 -1.02 6.07 0z"/>
  <line class="fil4 str1" x1="39.86" y1="45.38" x2="25.4" y2= "91.42" />
  <line class="fil4 str0" x1="49.29" y1="0.15" x2="31.72" y2= "56.14" />
  <path class="fil1 str2" d="M45.37 39.34l-5.13 0 -0.8 2.88 -3.38 0 5.65 -18.22 2.18 0 5.67 18.22 -3.4 0 -0.79 -2.88zm-0.86 -3.11l-1.71 -6.2 -1.71 6.2 3.42 0zm10.06 1.87c0,0.3 0.08,0.53 0.24,0.7 0.17,0.16 0.4,0.24 0.69,0.24l0.49 0 0 3.18 -1.46 0c-1.02,0 -1.81,-0.3 -2.38,-0.9 -0.57,-0.6 -0.85,-1.45 -0.85,-2.55l0 -14.77 3.27 0 0 14.1zm12.97 -4.29l0 8.41 -3.28 0 0 -8.34c0,-0.59 -0.14,-1.04 -0.42,-1.35 -0.27,-0.31 -0.67,-0.47 -1.18,-0.47 -0.49,0 -0.86,0.14 -1.13,0.42 -0.26,0.28 -0.39,0.68 -0.39,1.21l0 8.53 -3.28 0 0 -13.01 3.28 0 0.02 1.76c0.35,-0.84 0.49,-0.93 1.03,-1.34 0.54,-0.42 1.17,-0.63 1.87,-0.63 0.73,0 1.36,0.17 1.89,0.51 0.52,0.34 0.91,0.83 1.18,1.48 0.04,0.09 0.07,0.16 0.1,0.25 0.34,-0.8 0.69,-1.17 1.28,-1.6 0.58,-0.43 1.23,-0.64 1.94,-0.64 0.74,0 1.36,0.18 1.89,0.53 0.53,0.35 0.93,0.86 1.21,1.53 0.27,0.67 0.41,1.48 0.41,2.43l0 8.73 -3.3 0 0 -8.34c0,-0.59 -0.13,-1.04 -0.4,-1.35 -0.27,-0.31 -0.65,-0.47 -1.15,-0.47 -0.51,0 -0.9,0.15 -1.17,0.45 -0.27,0.3 -0.4,0.73 -0.4,1.3zm13.77 8.6c-1,0 -1.86,-0.18 -2.57,-0.54 -0.71,-0.37 -1.25,-0.9 -1.62,-1.59 -0.37,-0.68 -0.56,-1.51 -0.56,-2.48l0 -4.25c0,-0.96 0.19,-1.78 0.56,-2.46 0.37,-0.68 0.91,-1.2 1.62,-1.56 0.71,-0.35 1.57,-0.53 2.57,-0.53 1.01,0 1.87,0.18 2.58,0.53 0.71,0.36 1.26,0.88 1.63,1.56 0.37,0.68 0.56,1.5 0.56,2.46l0 4.29c0,0.96 -0.19,1.78 -0.56,2.47 -0.37,0.68 -0.92,1.2 -1.63,1.56 -0.71,0.36 -1.57,0.54 -2.58,0.54zm0 -3.06c0.48,0 0.85,-0.14 1.11,-0.43 0.27,-0.28 0.4,-0.68 0.4,-1.21l0 -4.05c0,-0.51 -0.13,-0.9 -0.4,-1.19 -0.26,-0.28 -0.63,-0.42 -1.11,-0.42 -0.47,0 -0.83,0.14 -1.1,0.42 -0.27,0.29 -0.4,0.68 -0.4,1.19l0 4.05c0,0.53 0.13,0.93 0.39,1.21 0.27,0.29 0.64,0.43 1.11,0.43zm11.44 3.06c-0.87,0 -1.66,-0.12 -2.35,-0.37 -0.7,-0.25 -1.27,-0.6 -1.73,-1.08 -0.46,-0.47 -0.79,-1.04 -0.98,-1.71l0 0 2.66 -1.38 0 0c0.25,0.51 0.6,0.89 1.05,1.16 0.45,0.26 0.96,0.4 1.54,0.4 0.51,0 0.92,-0.1 1.22,-0.3 0.3,-0.19 0.45,-0.45 0.45,-0.78 0,-0.29 -0.09,-0.51 -0.27,-0.68 -0.17,-0.17 -0.39,-0.3 -0.67,-0.38 -1.38,-0.44 -2.44,-0.48 -3.82,-1.13 -0.48,-0.23 -0.9,-0.59 -1.22,-1.1 -0.33,-0.5 -0.5,-1.19 -0.5,-2.05 0,-0.82 0.18,-1.53 0.55,-2.13 0.37,-0.6 0.9,-1.06 1.58,-1.38 0.68,-0.32 1.5,-0.49 2.44,-0.49 0.8,0 1.51,0.12 2.15,0.35 0.63,0.24 1.17,0.58 1.6,1.03 0.44,0.45 0.74,1 0.93,1.63l0 0 -2.63 1.3 0 0c-0.22,-0.42 -0.51,-0.75 -0.87,-0.99 -0.36,-0.23 -0.77,-0.35 -1.23,-0.35 -0.47,0 -0.85,0.09 -1.12,0.27 -0.27,0.18 -0.41,0.42 -0.41,0.72 0,0.27 0.1,0.49 0.29,0.65 0.2,0.16 0.44,0.29 0.72,0.38 1.2,0.35 2.37,0.45 3.55,0.94 0.52,0.22 0.97,0.59 1.34,1.12 0.37,0.53 0.56,1.28 0.56,2.24 0,0.83 -0.19,1.56 -0.58,2.18 -0.39,0.62 -0.95,1.1 -1.68,1.43 -0.72,0.33 -1.58,0.5 -2.57,0.5zm10.77 -10.31l0 6.06c0,0.3 0.06,0.53 0.19,0.7 0.14,0.16 0.32,0.24 0.56,0.24l0.88 0 0 3.19 -1.55 0c-1.16,0 -2,-0.29 -2.54,-0.88 -0.54,-0.58 -0.81,-1.43 -0.81,-2.57l0 -6.74 -1.23 0 0 -2.89 1.23 0.01 0 -3.79 3.27 0 0 3.78 1.63 0 0 2.89 -1.63 0"/>
  <path class="fil5" d="M36.37 54.8l2.29 0 5.95 19.13 -3.57 0 -3.52 -12.8 -3.53 12.8 -3.55 0 5.93 -19.13zm-2.63 12.85l7.64 0 0 3.26 -7.64 0 0 -3.26zm12.7 -7.37l3.44 0 0 13.65 -3.44 0 0 -13.65zm6.63 4.69c0,-0.55 -0.14,-0.97 -0.43,-1.27 -0.28,-0.29 -0.68,-0.44 -1.2,-0.44 -0.5,0 -0.89,0.15 -1.16,0.44 -0.26,0.3 -0.4,0.72 -0.4,1.27l-0.27 -2.31c0.34,-0.85 0.78,-1.5 1.33,-1.94 0.55,-0.45 1.2,-0.67 1.95,-0.67 1.14,0 2.03,0.4 2.66,1.19 0.63,0.79 0.95,1.9 0.95,3.33l0 9.36 -3.43 0 0 -8.96zm11.15 9.16c-1.05,0 -1.95,-0.19 -2.7,-0.57 -0.74,-0.38 -1.31,-0.94 -1.7,-1.66 -0.39,-0.72 -0.59,-1.6 -0.59,-2.61l0 -4.46c0,-1.01 0.2,-1.87 0.59,-2.59 0.39,-0.71 0.96,-1.25 1.7,-1.63 0.75,-0.37 1.65,-0.56 2.7,-0.56 1.05,0 1.96,0.19 2.71,0.56 0.75,0.38 1.32,0.92 1.71,1.63 0.39,0.72 0.58,1.58 0.58,2.59l0 4.5c0,1.01 -0.19,1.87 -0.58,2.59 -0.39,0.72 -0.96,1.27 -1.71,1.64 -0.75,0.38 -1.66,0.57 -2.71,0.57zm0 -3.21c0.5,0 0.89,-0.15 1.17,-0.45 0.27,-0.3 0.41,-0.72 0.41,-1.28l0 -4.24c0,-0.54 -0.14,-0.95 -0.41,-1.25 -0.28,-0.3 -0.67,-0.45 -1.17,-0.45 -0.49,0 -0.88,0.15 -1.16,0.45 -0.28,0.3 -0.42,0.71 -0.42,1.25l0 4.24c0,0.56 0.14,0.98 0.42,1.28 0.27,0.3 0.66,0.45 1.16,0.45zm11.55 3.08c-1.21,0 -2.1,-0.31 -2.67,-0.92 -0.56,-0.61 -0.84,-1.51 -0.84,-2.7l0 -14.08 3.43 0 0 13.37c0,0.32 0.07,0.56 0.2,0.73 0.14,0.17 0.34,0.26 0.59,0.26l0.92 0 0 3.34 -1.63 0zm-4.8 -13.72l6.43 0 0 3.02 -6.43 0 0 -3.02zm8.99 -5.48l3.43 0 0 19.13 -3.43 0 0 -19.13zm6.62 10.21c0,-0.55 -0.13,-0.97 -0.42,-1.28 -0.28,-0.29 -0.68,-0.44 -1.21,-0.44 -0.5,0 -0.89,0.15 -1.16,0.44 -0.27,0.31 -0.4,0.73 -0.4,1.28l-0.25 -2.35c0.33,-0.84 0.77,-1.49 1.32,-1.93 0.55,-0.45 1.2,-0.68 1.95,-0.68 1.15,0 2.04,0.4 2.67,1.18 0.63,0.79 0.94,1.9 0.94,3.34l0 9.36 -3.44 0 0 -8.92zm11.45 9.12c-1.1,0 -2.05,-0.2 -2.85,-0.61 -0.79,-0.41 -1.39,-1 -1.81,-1.77 -0.41,-0.76 -0.62,-1.69 -0.62,-2.78l0 -3.5c0,-1.14 0.21,-2.11 0.61,-2.93 0.4,-0.8 0.98,-1.42 1.74,-1.84 0.76,-0.42 1.68,-0.63 2.76,-0.63 1.05,0 1.95,0.23 2.7,0.69 0.74,0.47 1.31,1.15 1.7,2.04 0.38,0.9 0.57,1.97 0.57,3.22l0 2.4 -7.59 0 0 -2.42 4.37 0 0 -0.97c0,-0.58 -0.16,-1.04 -0.49,-1.38 -0.32,-0.34 -0.74,-0.5 -1.26,-0.5 -0.6,0 -1.06,0.19 -1.39,0.57 -0.33,0.38 -0.49,0.92 -0.49,1.61l0 3.72c0,0.66 0.17,1.16 0.51,1.52 0.35,0.36 0.83,0.53 1.46,0.53 0.46,0 0.84,-0.11 1.16,-0.35 0.32,-0.23 0.55,-0.57 0.7,-1.03l0 0 2.86 1.1 0 0c-0.26,1.08 -0.78,1.9 -1.57,2.47 -0.79,0.56 -1.82,0.84 -3.07,0.84zm7.57 -13.85l3.56 0 0 13.65 -3.56 0 0 -13.65zm7.1 3.5c-0.14,-0.09 -0.31,-0.16 -0.51,-0.2 -0.2,-0.04 -0.42,-0.07 -0.66,-0.07 -0.76,0 -1.34,0.24 -1.75,0.71 -0.42,0.47 -0.62,1.11 -0.62,1.93l-0.28 -3.49c0.39,-0.82 0.89,-1.45 1.5,-1.92 0.6,-0.46 1.27,-0.69 2,-0.69 0.28,0 0.54,0.05 0.77,0.14 0.23,0.09 0.43,0.23 0.6,0.4l-1.05 3.19z"/>
  <path class="fil6" d="M56.16 88.2c-0.34,0 -0.65,-0.05 -0.9,-0.15 -0.26,-0.11 -0.47,-0.26 -0.64,-0.46 -0.17,-0.19 -0.29,-0.44 -0.36,-0.74l0 0 1.01 -0.45 0 0c0.08,0.24 0.2,0.43 0.36,0.55 0.17,0.13 0.36,0.19 0.59,0.19 0.24,0 0.43,-0.05 0.56,-0.16 0.14,-0.1 0.2,-0.25 0.2,-0.44l0 -0.27c0,-0.14 -0.03,-0.25 -0.11,-0.34 -0.08,-0.09 -0.18,-0.16 -0.3,-0.21 -0.13,-0.05 -0.29,-0.11 -0.5,-0.17 -0.01,-0.01 -0.02,-0.01 -0.02,-0.01 -0.01,0 -0.02,0 -0.02,-0.01l-0.05 -0.01c-0.33,-0.1 -0.6,-0.21 -0.81,-0.31 -0.21,-0.1 -0.39,-0.27 -0.54,-0.49 -0.15,-0.22 -0.23,-0.52 -0.23,-0.89l0 -0.16c0,-0.35 0.08,-0.65 0.22,-0.9 0.15,-0.25 0.36,-0.44 0.64,-0.57 0.28,-0.14 0.62,-0.2 1.02,-0.2 0.3,0 0.56,0.05 0.79,0.15 0.23,0.09 0.43,0.24 0.58,0.43 0.16,0.19 0.27,0.43 0.34,0.72l0 0 -0.96 0.45 0 0c-0.08,-0.23 -0.19,-0.4 -0.33,-0.52 -0.14,-0.12 -0.3,-0.18 -0.48,-0.18 -0.23,0 -0.41,0.05 -0.54,0.14 -0.13,0.1 -0.19,0.24 -0.19,0.41l0 0.2c0,0.15 0.04,0.28 0.12,0.37 0.08,0.1 0.19,0.17 0.31,0.23 0.12,0.05 0.3,0.11 0.52,0.18 0.01,0 0.03,0.01 0.05,0.01 0.01,0.01 0.03,0.01 0.05,0.02 0.01,0.01 0.02,0.01 0.04,0.01 0.01,0.01 0.02,0.01 0.03,0.01 0.31,0.1 0.56,0.2 0.76,0.31 0.2,0.11 0.36,0.27 0.5,0.48 0.13,0.22 0.2,0.5 0.2,0.85l0 0.26c0,0.35 -0.08,0.65 -0.23,0.9 -0.15,0.25 -0.36,0.44 -0.65,0.57 -0.28,0.13 -0.63,0.2 -1.03,0.2zm2.72 -6.14l1.09 0 0 6.08 -1.09 0 0 -6.08zm0.44 5.02l2.94 0 0 1.06 -2.94 0 0 -1.06zm0 -2.49l2.61 0 0 1.06 -2.61 0 0 -1.06zm0 -2.53l2.94 0 0 1.06 -2.94 0 0 -1.06zm7.16 0l1.24 0 0 6.08 -0.98 0 0 -4.48 0.05 0.26 -1.02 3.34 -0.76 0 -1.03 -3.25 0.07 -0.35 0 4.48 -1 0 0 -6.08 1.25 0 1.09 3.7 1.09 -3.7zm2.78 2.67l1.51 0c0.11,0 0.21,-0.03 0.29,-0.08 0.08,-0.05 0.15,-0.12 0.19,-0.22 0.05,-0.09 0.07,-0.2 0.07,-0.33l0 -0.35c0,-0.13 -0.02,-0.25 -0.06,-0.34 -0.05,-0.1 -0.11,-0.17 -0.19,-0.22 -0.09,-0.05 -0.19,-0.08 -0.3,-0.08l-1.51 0 0 -1.05 1.51 0c0.34,0 0.64,0.07 0.89,0.19 0.25,0.13 0.44,0.32 0.58,0.57 0.13,0.24 0.2,0.53 0.2,0.85l0 0.51c0,0.33 -0.07,0.61 -0.2,0.85 -0.14,0.24 -0.33,0.43 -0.58,0.55 -0.25,0.13 -0.55,0.2 -0.89,0.2l-1.51 0 0 -1.05zm-0.5 -2.67l1.09 0 0 6.08 -1.09 0 0 -6.08zm4.45 0l1.09 0 0 6.08 -1.09 0 0 -6.08zm0.43 5.02l2.95 0 0 1.06 -2.95 0 0 -1.06zm0 -2.49l2.62 0 0 1.06 -2.62 0 0 -1.06zm0 -2.53l2.95 0 0 1.06 -2.95 0 0 -1.06zm4.2 2.52l1.61 0c0.1,0 0.19,-0.02 0.27,-0.07 0.07,-0.04 0.13,-0.11 0.17,-0.19 0.05,-0.09 0.07,-0.19 0.07,-0.3l0 -0.34c0,-0.11 -0.02,-0.22 -0.06,-0.3 -0.04,-0.09 -0.1,-0.16 -0.18,-0.21 -0.08,-0.04 -0.17,-0.06 -0.27,-0.06l-1.61 0 0 -1.05 1.62 0c0.33,0 0.62,0.06 0.86,0.19 0.25,0.13 0.43,0.31 0.56,0.55 0.14,0.24 0.2,0.53 0.2,0.85l0 0.36c0,0.33 -0.06,0.62 -0.2,0.86 -0.13,0.24 -0.31,0.43 -0.56,0.56 -0.24,0.13 -0.53,0.2 -0.86,0.2l-1.62 0 0 -1.05zm-0.46 -2.52l1.08 0 0 6.08 -1.08 0 0 -6.08zm1.53 3.38l1.08 -0.19 1.3 2.89 -1.25 0 -1.13 -2.7zm4.7 -3.38l1.14 0 0.94 4.12 0.93 -4.12 1.14 0 -1.57 6.08 -1.01 0 -1.57 -6.08zm5.76 0l0.73 0 1.88 6.08 -1.13 0 -1.12 -4.07 -1.12 4.07 -1.12 0 1.88 -6.08zm-0.84 4.08l2.43 0 0 1.03 -2.43 0 0 -1.03zm5.49 2.06c-0.39,0 -0.72,-0.08 -0.99,-0.23 -0.27,-0.14 -0.48,-0.36 -0.63,-0.64 -0.14,-0.29 -0.22,-0.63 -0.22,-1.04l0 -2.38c0,-0.41 0.08,-0.75 0.22,-1.04 0.15,-0.28 0.36,-0.5 0.63,-0.65 0.27,-0.15 0.6,-0.22 0.99,-0.22 0.37,0 0.69,0.07 0.95,0.22 0.26,0.15 0.46,0.38 0.61,0.69 0.14,0.3 0.22,0.69 0.25,1.16l0 0 -1.12 0 0 0c-0.01,-0.22 -0.05,-0.4 -0.11,-0.55 -0.06,-0.14 -0.13,-0.25 -0.23,-0.32 -0.1,-0.07 -0.22,-0.1 -0.35,-0.1 -0.15,0 -0.28,0.03 -0.39,0.09 -0.1,0.06 -0.18,0.16 -0.24,0.28 -0.05,0.12 -0.08,0.27 -0.08,0.44l0 2.38c0,0.18 0.03,0.32 0.08,0.44 0.06,0.12 0.14,0.21 0.24,0.28 0.11,0.06 0.24,0.09 0.39,0.09 0.13,0 0.25,-0.04 0.35,-0.11 0.1,-0.07 0.18,-0.17 0.24,-0.31 0.05,-0.15 0.09,-0.33 0.1,-0.55l0 0 1.12 0 0 0c-0.03,0.47 -0.11,0.85 -0.26,1.16 -0.14,0.3 -0.34,0.53 -0.6,0.68 -0.26,0.15 -0.58,0.23 -0.95,0.23zm4.26 0c-0.39,0 -0.72,-0.08 -0.99,-0.23 -0.28,-0.14 -0.49,-0.36 -0.63,-0.64 -0.14,-0.29 -0.21,-0.63 -0.21,-1.03l0 -4.24 1.09 0 0 4.27c0,0.25 0.06,0.44 0.19,0.58 0.13,0.13 0.31,0.2 0.55,0.2 0.23,0 0.42,-0.07 0.55,-0.2 0.13,-0.14 0.19,-0.33 0.19,-0.58l0 -4.27 1.1 0 0 4.24c0,0.4 -0.07,0.74 -0.22,1.03 -0.14,0.28 -0.35,0.5 -0.63,0.64 -0.28,0.15 -0.61,0.23 -0.99,0.23zm4.39 0c-0.38,0 -0.71,-0.08 -0.99,-0.23 -0.27,-0.14 -0.48,-0.36 -0.62,-0.64 -0.15,-0.29 -0.22,-0.63 -0.22,-1.03l0 -4.24 1.09 0 0 4.27c0,0.25 0.07,0.44 0.19,0.58 0.13,0.13 0.32,0.2 0.55,0.2 0.24,0 0.42,-0.07 0.55,-0.2 0.13,-0.14 0.2,-0.33 0.2,-0.58l0 -4.27 1.09 0 0 4.24c0,0.4 -0.07,0.74 -0.22,1.03 -0.14,0.28 -0.35,0.5 -0.63,0.64 -0.27,0.15 -0.6,0.23 -0.99,0.23zm6.15 -6.14l1.24 0 0 6.08 -0.98 0 0 -4.48 0.05 0.26 -1.02 3.34 -0.77 0 -1.02 -3.25 0.07 -0.35 0 4.48 -1 0 0 -6.08 1.25 0 1.09 3.7 1.09 -3.7zm4.29 0l1.09 0 0 6.08 -1.09 0 0 -6.08zm0.43 5.02l2.95 0 0 1.06 -2.95 0 0 -1.06zm0 -2.49l2.62 0 0 1.06 -2.62 0 0 -1.06zm0 -2.53l2.95 0 0 1.06 -2.95 0 0 -1.06zm5.42 6.14c-0.35,0 -0.65,-0.05 -0.91,-0.15 -0.25,-0.11 -0.47,-0.26 -0.64,-0.46 -0.17,-0.19 -0.29,-0.44 -0.36,-0.74l0 0 1.02 -0.45 0 0c0.08,0.24 0.2,0.43 0.36,0.55 0.16,0.13 0.36,0.19 0.59,0.19 0.24,0 0.43,-0.05 0.56,-0.16 0.13,-0.1 0.2,-0.25 0.2,-0.44l0 -0.27c0,-0.14 -0.04,-0.25 -0.12,-0.34 -0.07,-0.09 -0.17,-0.16 -0.3,-0.21 -0.12,-0.05 -0.29,-0.11 -0.49,-0.17 -0.01,-0.01 -0.02,-0.01 -0.03,-0.01 0,0 -0.01,0 -0.02,-0.01l-0.05 -0.01c-0.33,-0.1 -0.6,-0.21 -0.81,-0.31 -0.21,-0.1 -0.39,-0.27 -0.54,-0.49 -0.15,-0.22 -0.22,-0.52 -0.22,-0.89l0 -0.16c0,-0.35 0.07,-0.65 0.22,-0.9 0.15,-0.25 0.36,-0.44 0.64,-0.57 0.28,-0.14 0.62,-0.2 1.02,-0.2 0.3,0 0.56,0.05 0.79,0.15 0.23,0.09 0.42,0.24 0.58,0.43 0.15,0.19 0.27,0.43 0.34,0.72l0 0 -0.96 0.45 0 0c-0.08,-0.23 -0.19,-0.4 -0.33,-0.52 -0.14,-0.12 -0.3,-0.18 -0.49,-0.18 -0.23,0 -0.41,0.05 -0.53,0.14 -0.13,0.1 -0.19,0.24 -0.19,0.41l0 0.2c0,0.15 0.04,0.28 0.12,0.37 0.08,0.1 0.19,0.17 0.31,0.23 0.12,0.05 0.29,0.11 0.51,0.18 0.02,0 0.03,0.01 0.05,0.01 0.02,0.01 0.04,0.01 0.06,0.02 0.01,0.01 0.02,0.01 0.03,0.01 0.01,0.01 0.03,0.01 0.04,0.01 0.3,0.1 0.56,0.2 0.75,0.31 0.2,0.11 0.37,0.27 0.5,0.48 0.14,0.22 0.2,0.5 0.2,0.85l0 0.26c0,0.35 -0.07,0.65 -0.22,0.9 -0.15,0.25 -0.37,0.44 -0.65,0.57 -0.29,0.13 -0.63,0.2 -1.03,0.2zm3.5 -5.64l1.09 0 0 5.58 -1.09 0 0 -5.58zm-1.32 -0.5l3.74 0 0 1.05 -3.74 0 0 -1.05z"/>
  <line class="fil4 str3" x1="45.96" y1="45.38" x2="31.51" y2= "91.42" />
 </g>
</svg>
